Patient4_TMGait_0pt7_01_right_01_EMG.mot
version=1
nRows=36
nColumns=33
inDegrees=no
endheader
time	1LAddLong	2LGlutMax	3LGlutMed	4LIliopsoas	5LSemiMemb	6LBicFemLong	7LRecFem	8LVastMed	9LVastLat	10LGasMed	11LTibAnt	12lTibPost	13LPeroneusLong	14LSol	15LExtDigLong	16LFlexDigLong	17RAddLong	18RGlutMax	19RGlutMed	20RIliopsoas	21RSemiMemb	22RBicFemLong	23RRecFem	24RVastMed	25RVastLat	26RGasMed	27RTibAnt	28RTibPost	29RPeroneusLong	30RSol	31RExtDigLong	32RFlexDigLong
0.55	-0.004578	-0.046539	-0.11063	-0.027771	0.00946	-0.009918	-0.073547	0.014038	0.050659	-0.30853	-0.046082	-0.005798	0.48263	0.18692	0.076141	0.019531	0.006104	-0.54367	0.18692	-0.007324	0.055542	-0.018921	0.12314	0.007477	-0.000153	-0.005035	0.29159	-0.013428	0.02594	-0.018311	0.000305	-0.004883
0.551	-0.010223	-0.034332	-0.072327	0.005188	0.016785	-0.025024	0.025024	-0.01358	0.082703	-0.19821	-0.023956	0.006104	0.1445	0.12528	0.005188	0.019531	0.010071	-0.54932	0.57236	-0.058899	0.055695	-0.030975	0.21957	-0.037994	-0.0383	0.00061	0.022583	-0.006866	0.19516	-0.079803	0.001526	-0.00473
0.552	-0.002289	-0.040283	-0.010834	-0.002289	0.015411	0.052643	-0.016479	-0.000916	0.058136	-0.10162	-0.10681	0.00885	0.001526	-0.13092	-0.074768	0.013733	0.011902	-0.57114	0.37094	-0.074921	0.055695	-0.017548	0.53345	0.025177	-0.042572	-0.002289	-0.024567	-0.009308	0.38391	-0.1088	0.000305	0.004883
0.553	-0.015717	-0.02243	-0.038452	0.012207	0.02533	0.12207	-0.003815	-0.006561	0.074921	-0.065002	-0.13886	-0.006104	-0.40405	-0.16937	-0.075073	0.019379	0.003052	-0.57053	0.17303	-0.036316	0.042267	-0.018311	0.76111	0.062866	-0.036621	-0.002441	-0.31448	-0.006409	0.12375	-0.08316	-0.003662	0.006409
0.554	-0.009308	-0.04364	-0.18127	0.009155	0.024261	0.30106	0.084686	-0.007629	-0.022888	-0.072632	-0.028229	-0.006561	-0.13534	0.12222	-0.11261	0.00412	0.007935	-0.57785	0.15518	0.002441	0.033875	-0.012207	0.72922	0.090942	-0.031586	-0.00824	-0.21545	-0.010529	-0.77591	-0.12085	-0.007935	0.009155
0.555	-0.006866	-0.032959	-0.17868	-0.012054	0.004272	0.41351	-0.017548	-0.005493	-0.032959	-0.080566	0.072021	-0.010681	0.3244	0.27817	-0.15717	-0.001068	0.008545	-0.55161	0.17242	0.010223	0.040436	-0.004578	0.69672	0.06073	-0.079498	-0.008698	-0.20798	-0.006561	-0.79254	-0.11902	-0.002594	0.001526
0.556	-0.00473	0.006714	-0.037994	-0.006104	0.031738	0.29343	-0.088196	-0.007782	0.020447	-0.12741	0.056152	-0.007782	0.29327	0.23575	0.076141	-0.00351	0.000305	-0.50171	0.22675	0.034943	0.043182	0.001373	0.55283	-0.023651	-0.0737	-0.007935	-0.089417	-0.006409	0.058441	-0.024261	-0.001984	-0.010223
0.557	-0.001373	-0.007935	0.10819	-0.004425	-0.005035	0.21729	-0.21194	-0.002899	0.10117	-0.11398	0.024414	-0.014496	0.35858	0.055542	0.2771	-0.008087	-0.005341	-0.48828	0.23911	0.047913	0.039673	0.003052	0.23346	-0.024567	-0.057831	-0.013275	0.043335	-0.010376	0.2713	0.071106	-0.001068	-0.007172
0.558	-0.003662	-0.043182	-0.024261	0.003815	-0.007782	-0.070496	-0.1619	-0.003204	0.1326	-0.027313	0.13458	-0.013428	0.086365	-0.019226	0.41184	-0.032806	0.000458	-0.46906	0.18829	-0.026093	0.033264	0.007782	0.10437	-0.039978	-0.028839	-0.013123	0.13077	-0.001984	0.18539	0.091248	-0.001831	-0.005188
0.559	-0.020447	-0.055084	-0.036774	0.024719	-0.018921	-0.25345	-0.019379	0.004425	0.044403	-0.0177	0.31479	-0.020599	-0.1947	0.010834	0.47409	-0.022736	0.003357	-0.51193	0.17639	-0.10742	0.03891	0.012054	-0.10117	-0.086975	-0.029297	-0.010681	0.25101	-0.00412	0.14038	0.033112	-0.001526	0.003967
0.56	-0.015564	-0.093536	-0.066376	0.014343	-0.014954	-0.34058	-0.017242	0.004578	-0.06897	-0.038605	0.5304	-0.010529	0.19333	-0.052643	-0.36911	-0.018768	0.002136	-0.4895	0.11108	-0.19943	0.031586	0.014954	-0.083923	-0.12238	-0.045166	-0.00824	0.21729	-0.002136	-0.37888	0.051422	-0.001068	-0.007324
0.561	-0.02121	-0.083618	-0.034485	-0.013733	-0.019684	-0.56641	-0.069275	-0.000305	0.050201	-0.046234	0.42084	-0.022278	0.1358	-0.039063	-0.58121	-0.001221	0.002899	-0.47958	0.17624	-0.10864	0.028229	0.012512	0.053406	-0.14114	-0.042267	-0.012817	0.21729	-0.001678	-0.2446	-0.049286	-0.002594	-0.006256
0.562	-0.023651	-0.089111	0.015564	0.001678	-0.017242	-0.2449	0.010681	-0.00412	0.092926	-0.03006	-0.0914	-0.013123	-0.21591	-0.10788	-0.57251	-0.010681	0.001373	-0.45883	0.20981	-0.050507	0.031128	0.00885	0.24979	-0.15656	-0.032959	-0.011597	0.15778	0.002136	0.35049	-0.048065	-0.001831	-0.007782
0.563	-0.010834	-0.06546	-0.029602	-0.010681	-0.021973	-0.035706	0.025177	-0.005798	0.086975	-0.050354	-0.27588	-0.016937	0.15442	-0.085297	-0.33386	-0.025482	-0.000763	-0.45151	0.20538	-0.008087	0.022888	0.001526	0.35675	-0.18265	-0.040588	-0.009003	0.05127	-0.001984	0.61676	0.035095	0.008087	-0.004425
0.564	-0.011749	-0.077362	-0.052338	-0.007324	-0.049286	-0.016785	0.025482	-0.004425	0.056458	-0.062866	-0.31601	-0.01236	0.20706	-0.048676	-0.076294	-0.016022	0.00351	-0.46814	0.13504	-0.080872	0.023193	0.007019	0.23346	-0.25497	-0.037537	0	-0.17441	-0.003357	-0.35385	-0.022125	-0.000916	-0.007172
0.565	-0.018311	-0.080872	-0.018616	-0.011444	-0.056152	0.000305	0.023499	0.011292	0.032043	-0.035858	-0.26184	-0.011444	0.4361	-0.11536	0.055237	-0.010071	0.003662	-0.43274	0.17044	-0.051575	0.019379	0.019379	-0.011139	-0.32196	-0.063934	0.005646	-0.25726	-0.001984	-0.54367	-0.023651	0.00061	-0.00473
0.566	-0.008698	-0.092621	-0.071106	-0.009003	-0.089874	-0.002136	0.012207	-0.001068	0.038605	-0.06897	-0.13825	-0.008392	0.24994	-0.14069	0.25162	0.00351	0.005188	-0.41565	0.21271	0.074005	0.010071	0.007019	-0.28488	-0.28534	-0.048065	-0.004578	-0.168	-0.008698	-0.15137	0.065918	-0.002899	-0.00412
0.567	0.00946	-0.066833	-0.1326	0.007172	-0.034332	0.047607	-0.016937	-0.009003	0.086823	-0.031128	-0.03479	-0.013428	-0.30136	-0.15625	0.12192	-0.00061	-0.003662	-0.40451	0.25223	0.19882	0.016022	0.014191	-0.64728	-0.21957	-0.037689	-0.001526	-0.034943	-0.002289	-0.066376	0.016479	-0.003662	-0.003357
0.568	0.004578	-0.077209	-0.080566	-0.002747	0.032654	0.058746	0.025635	0.00473	0.040588	-0.03479	-0.007782	-0.017395	-0.076752	-0.10254	0.075989	0.002594	-0.00824	-0.42038	0.15243	0.16617	0.019073	0.001984	-0.68558	-0.19898	-0.05188	0.007019	0.2565	-0.00412	-0.24735	-0.089417	-0.000916	0.002747
0.569	0.007782	-0.075989	0.048676	0.007324	0.075531	0.13504	0.062561	-0.001373	0.037537	-0.00473	-0.014191	-0.011902	-0.17395	-0.23086	0.060425	-0.011292	-0.009613	-0.39139	0.14816	0.088654	0.016937	0.01709	-0.43594	-0.044403	-0.053711	0.008698	0.46265	-0.003662	-0.29587	-0.082245	-0.000458	0.005188
0.57	-0.012207	-0.10361	0.079346	0.011597	0.089874	0.022278	0.083466	0.000458	0.024567	-0.010834	-0.006561	0.001831	0.082703	-0.25925	0.14252	-0.006409	-0.015564	-0.41473	0.11353	0.058746	0.010986	0.029602	-0.15274	0.060577	-0.056458	-0.001221	0.45731	-0.001221	-0.10254	-0.1152	-0.002136	0.003357
0.571	-0.013123	-0.10452	0.042114	-0.002136	-0.003357	-0.090027	0.070343	-0.006409	0.016785	-0.018616	-0.030212	-0.009003	-0.11139	-0.27603	0.1947	-0.00351	-0.009766	-0.42633	0.21576	0.067291	0.015259	0.030518	-0.024567	0.081024	-0.045013	-0.010376	0.4071	-0.001526	-0.099182	-0.056458	-0.002441	0.003204
0.572	0.000305	-0.10254	-0.012665	0.002136	-0.023651	-0.13138	0.072632	-0.000305	-0.007782	-0.017242	-0.045013	-0.011902	-0.11093	-0.23712	0.15045	-0.007019	-0.003357	-0.36026	0.33203	0.10483	0.017395	0.039978	0.034943	0.097198	-0.040131	-0.014343	0.29037	-0.001373	-0.24033	-0.046997	-0.003815	0.001068
0.573	-0.000916	-0.09491	-0.001068	-0.00351	0.014343	-0.16037	0.15167	0.010529	-0.049744	-0.01236	-0.044403	-0.00351	0.51117	-0.19562	0.12604	-0.001221	-0.001526	-0.39551	0.30991	0.11871	0.00885	0.030365	-0.026703	0.080261	-0.042877	-0.016785	0.13718	-0.005188	-0.075378	-0.079041	-0.005798	-0.010071
0.574	-0.005798	-0.097656	0.06424	0.014954	0.016479	-0.076447	0.14175	0.009155	-0.090332	-0.009003	-0.009766	-0.010223	0.30624	-0.088501	0.13092	-0.017242	-0.00061	-0.36362	0.36163	0.029602	0.016479	0.029907	-0.19592	0.076141	-0.043335	-0.019531	0.10651	0.004425	0.37384	-0.10574	-0.002441	0.001221
0.575	-0.008545	-0.1239	-0.040283	0.041351	-0.027618	-0.1918	0.050354	0.009766	-0.14114	-0.028534	-0.011597	-0.002594	-0.37811	-0.071716	0.044708	-0.016022	0.024567	-0.34439	0.2005	0.031433	0.01358	0.032043	-0.25009	0.040588	-0.030518	-0.007172	0.20279	-0.001068	-0.036163	-0.13138	0	-0.001831
0.576	0.010986	-0.15381	0.006866	-0.010681	0.016327	-0.1651	-0.084381	0.005035	-0.042877	-0.074768	-0.039063	-0.001678	-0.68161	-0.10117	-0.000305	-0.002899	0.039673	-0.37064	0.17532	0.006714	0.016785	0.042725	-0.46692	-0.027771	-0.000458	-0.009003	0.51697	0.001526	-0.1152	-0.15686	-0.000763	-0.004578
0.577	0.005035	-0.15503	-0.013123	-0.007935	0.077515	0.048676	-0.12848	-0.00061	0.021667	-0.056458	-0.026855	-0.004425	0.015106	-0.18143	0.034027	-0.01297	0.034943	-0.36438	0.22842	0.011597	0.007782	0.033875	-0.63736	-0.056305	-0.02121	-0.003357	0.62195	0.006561	0.41061	-0.13184	-0.000458	-0.00473
0.578	0.016479	-0.1619	0.10086	0.001831	0.068665	0.049896	-0.18295	0.012054	0.014801	-0.040588	-0.021362	0.005188	0.504	-0.19592	0.057678	-0.029755	0.017853	-0.33722	0.28336	0.025177	0.003357	0.027924	-0.49042	-0.07309	-0.044708	-0.001678	0.18662	-0.001678	-0.097198	-0.13412	-0.00412	-0.010071
0.579	0.018158	-0.19073	0.040131	-0.001068	0.034485	0.031433	-0.24231	0.020142	0.012054	0.001526	0.040588	-0.002136	0.19241	-0.25177	0.038147	-0.011597	0.007477	-0.3418	0.24704	-0.002289	0.005188	0.033569	-0.24887	-0.039673	-0.029755	-0.003662	-0.25253	-0.003967	0.068512	-0.12344	-0.001678	-0.012512
0.58	0.016022	-0.2095	0.01236	-0.005951	0.011292	-0.004272	-0.23956	0.014954	0.061798	0.039063	0.060272	0.008392	-0.21179	-0.18234	-0.054626	-0.020447	-0.009766	-0.34943	0.1355	-0.076141	0.003815	0.026398	-0.001984	0.028992	-0.020599	-0.003662	-0.32288	0.002289	-0.088654	-0.068054	-0.00061	-0.007935
0.581	0.010376	-0.23025	0.020142	0.005798	-0.004883	-0.090485	-0.11078	0.010834	0.12222	0.033722	0.007629	0.009766	0.46295	-0.041351	-0.048523	-0.024109	-0.011597	-0.3447	0.24063	-0.094604	-0.001373	0.044861	0.19806	0.10071	-0.015717	-0.012054	-0.10513	-0.000305	-0.027008	-0.024567	-0.00061	-0.007172
0.582	0.004425	-0.2301	0.009003	0.011749	-0.007477	-0.12253	-0.022736	-0.005493	0.11963	0.075836	-0.015106	0.007782	0.28717	0.075226	-0.052948	-0.025024	-0.025024	-0.30334	0.27817	-0.038605	-0.000458	0.032806	0.2861	0.088959	-0.019379	-0.002747	-0.58945	-0.002594	0.45212	0.026245	0.000153	-0.011902
0.583	0.00946	-0.20905	0.01297	0.015564	-0.010376	0.026398	0.021973	-0.016022	0.10925	0.09552	-0.016479	-0.006866	0.63034	0.16022	-0.0354	-0.019989	-0.015259	-0.24719	0.14023	0.10757	-0.002136	0.047607	0.40451	0.13275	-0.009766	0.000916	-0.61035	-0.001831	-0.20737	-0.071106	-0.000916	-0.005188
0.584	0.002899	-0.21011	0.000153	-0.001221	-0.00473	0.18036	0.024872	-0.017548	0.12131	0.078888	-0.007324	-0.00473	0.1294	0.074615	-0.12772	-0.0177	-0.025024	-0.27344	0.050049	0.10757	0.012665	0.029755	0.49545	0.14984	0.015411	-0.000916	-0.18295	-0.001526	-0.54306	-0.046692	-0.000153	-0.00061
0.585	-0.001221	-0.19547	0.010834	0.018311	0.000916	0.18249	0.014801	-0.009308	0.095367	0.080566	0.012665	0.011139	-0.76828	0.031128	0.029297	-0.009918	-0.02121	-0.24796	0.18646	0.05127	0.005341	0.041351	0.44144	0.16495	0.062866	0.00351	0.064087	-0.001984	-0.85129	0.010681	-0.003204	0.002594
